<svg xmlns="http://www.w3.org/2000/svg" width="200" height="200" viewBox="0 0 200 200">
  <path fill="#41C9B4" fill-rule="evenodd" d="M13.1571988,90.9012097 L78.8155277,90.9012097 L78.8155277,13.1504032 L31.4111934,13.1504032 C31.0735317,13.1504032 30.5282079,13.421371 30.2445721,13.7279032 C24.6815946,19.7264516 19.1000457,25.8316935 13.6501849,31.8742742 C13.3749906,32.1774194 13.1673286,32.8125 13.1656403,33.3544355 L13.1571988,90.9012097 Z M85.3813605,0 C89.0010946,0 91.9471934,2.95524194 91.9471934,6.58620968 L91.9471934,97.4874194 C91.9471934,101.118387 89.0010946,104.071935 85.3813605,104.071935 L6.59136589,104.071935 C2.96825523,104.071935 0.0221563876,101.118387 0.0221563876,97.4874194 C0.0221563876,96.7744355 0.0170914612,33.4594355 0.00020837333,30.9597581 C-0.0149864058,28.368629 0.80046674,26.2720161 2.56643774,24.3650806 L22.3534168,2.74185484 C24.0535437,0.870483871 26.0204235,0 28.5410685,0 L85.3813605,0 Z M26.2885269,45.8277581 C23.3930773,45.8277581 21.0361982,43.4652581 21.0361982,40.5608226 C21.0361982,37.6563871 23.391389,35.2921935 26.2868386,35.2921935 L35.223057,35.2921935 L35.2247453,26.3197742 C35.2247453,23.4153387 37.5799361,21.0528387 40.477074,21.0528387 C43.3742119,21.0528387 45.7294026,23.4153387 45.7294026,26.3197742 L45.7294026,40.5608226 C45.7294026,43.4652581 43.3742119,45.8277581 40.477074,45.8277581 L26.2885269,45.8277581 Z" transform="translate(54 48)"/>
</svg>
